<svg width="40" height="40" viewBox="0 0 40 40" fill="none" xmlns="http://www.w3.org/2000/svg">
<path d="M3.33337 36.6667H36.6667" stroke="#2563EB" stroke-width="1.5" stroke-miterlimit="10" stroke-linecap="round" stroke-linejoin="round"/>
<path d="M4.91663 36.6667L4.99996 16.6167C4.99996 15.6 5.48329 14.6334 6.28329 14.0001L17.95 4.91674C19.15 3.9834 20.8333 3.9834 22.05 4.91674L33.7166 13.9834C34.5333 14.6167 35 15.5833 35 16.6167V36.6667" stroke="#2563EB" stroke-width="1.5" stroke-miterlimit="10" stroke-linejoin="round"/>
<path d="M21.6667 28.3333H18.3334C16.95 28.3333 15.8334 29.45 15.8334 30.8333V36.6666H24.1667V30.8333C24.1667 29.45 23.05 28.3333 21.6667 28.3333Z" stroke="#2563EB" stroke-width="1.5" stroke-miterlimit="10" stroke-linejoin="round"/>
<path d="M15.8334 22.9166H12.5C11.5834 22.9166 10.8334 22.1666 10.8334 21.25V18.75C10.8334 17.8333 11.5834 17.0833 12.5 17.0833H15.8334C16.75 17.0833 17.5 17.8333 17.5 18.75V21.25C17.5 22.1666 16.75 22.9166 15.8334 22.9166Z" stroke="#2563EB" stroke-width="1.5" stroke-miterlimit="10" stroke-linejoin="round"/>
<path d="M27.5 22.9166H24.1667C23.25 22.9166 22.5 22.1666 22.5 21.25V18.75C22.5 17.8333 23.25 17.0833 24.1667 17.0833H27.5C28.4167 17.0833 29.1667 17.8333 29.1667 18.75V21.25C29.1667 22.1666 28.4167 22.9166 27.5 22.9166Z" stroke="#2563EB" stroke-width="1.5" stroke-miterlimit="10" stroke-linejoin="round"/>
<path d="M31.6667 11.6667L31.6167 6.66669H24.2833" stroke="#2563EB" stroke-width="1.5" stroke-miterlimit="10" stroke-linecap="round" stroke-linejoin="round"/>
</svg>
