<svg width="32" height="32" viewBox="0 0 32 32" fill="none" xmlns="http://www.w3.org/2000/svg">
<path d="M12.2133 14.4937C12.08 14.4803 11.92 14.4803 11.7733 14.4937C8.59996 14.387 6.07996 11.787 6.07996 8.58699C6.07996 5.32033 8.71996 2.66699 12 2.66699C15.2666 2.66699 17.92 5.32033 17.92 8.58699C17.9066 11.787 15.3866 14.387 12.2133 14.4937Z" stroke="#BD6E13" stroke-width="1.5" stroke-linecap="round" stroke-linejoin="round"/>
<path d="M21.88 5.33301C24.4667 5.33301 26.5467 7.42634 26.5467 9.99967C26.5467 12.5197 24.5467 14.573 22.0533 14.6663C21.9467 14.653 21.8267 14.653 21.7067 14.6663" stroke="#BD6E13" stroke-width="1.5" stroke-linecap="round" stroke-linejoin="round"/>
<path d="M5.54671 19.413C2.32004 21.573 2.32004 25.093 5.54671 27.2397C9.21338 29.693 15.2267 29.693 18.8934 27.2397C22.12 25.0797 22.12 21.5597 18.8934 19.413C15.24 16.973 9.22671 16.973 5.54671 19.413Z" stroke="#BD6E13" stroke-width="1.5" stroke-linecap="round" stroke-linejoin="round"/>
<path d="M24.4534 26.667C25.4134 26.467 26.32 26.0803 27.0667 25.507C29.1467 23.947 29.1467 21.3737 27.0667 19.8137C26.3334 19.2537 25.44 18.8803 24.4934 18.667" stroke="#BD6E13" stroke-width="1.5" stroke-linecap="round" stroke-linejoin="round"/>
</svg>
