<svg width="41" height="40" viewBox="0 0 41 40" fill="none" xmlns="http://www.w3.org/2000/svg">
<path d="M20.4999 36.6667C29.7047 36.6667 37.1666 29.2048 37.1666 20C37.1666 10.7953 29.7047 3.33334 20.4999 3.33334C11.2952 3.33334 3.83325 10.7953 3.83325 20C3.83325 29.2048 11.2952 36.6667 20.4999 36.6667Z" stroke="#2563EB" stroke-width="1.5" stroke-linecap="round" stroke-linejoin="round"/>
<path d="M13.8333 5H15.5C12.25 14.7333 12.25 25.2667 15.5 35H13.8333" stroke="#2563EB" stroke-width="1.5" stroke-linecap="round" stroke-linejoin="round"/>
<path d="M25.5 5C28.75 14.7333 28.75 25.2667 25.5 35" stroke="#2563EB" stroke-width="1.5" stroke-linecap="round" stroke-linejoin="round"/>
<path d="M5.5 26.6667V25C15.2333 28.25 25.7667 28.25 35.5 25V26.6667" stroke="#2563EB" stroke-width="1.5" stroke-linecap="round" stroke-linejoin="round"/>
<path d="M5.5 15C15.2333 11.75 25.7667 11.75 35.5 15" stroke="#2563EB" stroke-width="1.5" stroke-linecap="round" stroke-linejoin="round"/>
</svg>
