<svg width="32" height="32" viewBox="0 0 32 32" fill="none" xmlns="http://www.w3.org/2000/svg">
<path d="M27.88 14.8267C27.88 21.3467 23.1467 27.4534 16.68 29.2401C16.24 29.3601 15.76 29.3601 15.32 29.2401C8.85332 27.4534 4.12 21.3467 4.12 14.8267V8.97338C4.12 7.88005 4.94668 6.64005 5.97335 6.22672L13.4 3.18676C15.0666 2.50676 16.9467 2.50676 18.6133 3.18676L26.04 6.22672C27.0533 6.64005 27.8933 7.88005 27.8933 8.97338L27.88 14.8267Z" stroke="#2563EB" stroke-width="1.5" stroke-linecap="round" stroke-linejoin="round"/>
<path d="M16 16.6663C17.4728 16.6663 18.6667 15.4724 18.6667 13.9997C18.6667 12.5269 17.4728 11.333 16 11.333C14.5273 11.333 13.3334 12.5269 13.3334 13.9997C13.3334 15.4724 14.5273 16.6663 16 16.6663Z" stroke="#2563EB" stroke-width="1.5" stroke-miterlimit="10" stroke-linecap="round" stroke-linejoin="round"/>
<path d="M16 16.666V20.666" stroke="#2563EB" stroke-width="1.5" stroke-miterlimit="10" stroke-linecap="round" stroke-linejoin="round"/>
</svg>
