<svg width="32" height="32" viewBox="0 0 32 32" fill="none" xmlns="http://www.w3.org/2000/svg">
<g clip-path="url(#clip0_2053_11333)">
<path d="M28.9861 16.2432C28.9861 15.178 28.8977 14.4007 28.7062 13.5946H16.2588V18.4024H23.5652C23.4179 19.5972 22.6224 21.3966 20.8547 22.6057L20.83 22.7666L24.7656 25.746L25.0383 25.7726C27.5424 23.5126 28.9861 20.1874 28.9861 16.2432Z" fill="#4285F4"/>
<path d="M16.259 28.9107C19.8385 28.9107 22.8436 27.7591 25.0385 25.7726L20.855 22.6057C19.7355 23.3686 18.2329 23.9012 16.259 23.9012C12.7532 23.9012 9.77758 21.6413 8.71686 18.5176L8.56139 18.5305L4.46905 21.6254L4.41553 21.7708C6.59565 26.0029 11.0738 28.9107 16.259 28.9107Z" fill="#34A853"/>
<path d="M8.71691 18.5177C8.43704 17.7116 8.27506 16.8478 8.27506 15.9554C8.27506 15.0628 8.43704 14.1992 8.70219 13.3931L8.69478 13.2214L4.55115 10.0768L4.41558 10.1398C3.51704 11.896 3.00146 13.8681 3.00146 15.9554C3.00146 18.0426 3.51704 20.0146 4.41558 21.7708L8.71691 18.5177Z" fill="#FBBC05"/>
<path d="M16.259 8.00937C18.7485 8.00937 20.4277 9.06018 21.3853 9.93833L25.1269 6.36839C22.8289 4.28115 19.8385 3 16.259 3C11.0738 3 6.59565 5.90773 4.41553 10.1398L8.70214 13.3931C9.77758 10.2694 12.7532 8.00937 16.259 8.00937Z" fill="#EB4335"/>
</g>
<defs>
<clipPath id="clip0_2053_11333">
<rect width="26" height="26" fill="white" transform="translate(3 3)"/>
</clipPath>
</defs>
</svg>
