<svg width="24" height="24" viewBox="0 0 24 24" fill="none" xmlns="http://www.w3.org/2000/svg">
<path d="M18.3691 0H5.15088C3.78515 0.00118631 2.47569 0.544248 1.50997 1.50997C0.544248 2.47569 0.00118631 3.78515 0 5.15088V18.368C0.000889727 19.7339 0.54382 21.0437 1.50957 22.0096C2.47532 22.9756 3.78495 23.5188 5.15088 23.52H18.3691C19.7349 23.5188 21.0443 22.9757 22.01 22.01C22.9757 21.0443 23.5188 19.7349 23.52 18.3691V5.152C23.5191 3.78607 22.9762 2.47633 22.0104 1.51036C21.0447 0.544402 19.735 0.0011867 18.3691 0ZM18.387 6.16C18.1655 6.16 17.949 6.09431 17.7648 5.97125C17.5806 5.84818 17.4371 5.67326 17.3523 5.4686C17.2675 5.26395 17.2453 5.03876 17.2886 4.8215C17.3318 4.60424 17.4384 4.40468 17.5951 4.24804C17.7517 4.09141 17.9513 3.98474 18.1685 3.94152C18.3858 3.8983 18.611 3.92048 18.8156 4.00525C19.0203 4.09002 19.1952 4.23358 19.3183 4.41776C19.4414 4.60194 19.507 4.81848 19.507 5.04C19.507 5.33704 19.389 5.62192 19.179 5.83196C18.969 6.042 18.6841 6.16 18.387 6.16ZM11.76 17.6176C10.6015 17.6176 9.46897 17.2741 8.50569 16.6304C7.54241 15.9868 6.79163 15.0719 6.34828 14.0016C5.90493 12.9313 5.78893 11.7535 6.01495 10.6172C6.24097 9.48097 6.79885 8.43725 7.61805 7.61805C8.43725 6.79885 9.48097 6.24097 10.6172 6.01495C11.7535 5.78893 12.9313 5.90493 14.0016 6.34828C15.0719 6.79163 15.9868 7.54241 16.6304 8.50569C17.2741 9.46897 17.6176 10.6015 17.6176 11.76C17.6161 13.3131 16.9985 14.8021 15.9003 15.9003C14.8021 16.9985 13.3131 17.6161 11.76 17.6176Z" fill="#98A2B3"/>
</svg>
