<svg width="92" height="40" viewBox="0 0 92 40" fill="none" xmlns="http://www.w3.org/2000/svg">
<g clip-path="url(#clip0_445_25661)">
<path d="M0.875491 29.8813C0.933408 30.5479 1.47249 31.0902 2.1352 31.1485C2.65869 31.1933 3.12871 30.9468 3.40048 30.5513L14.4149 19.4712L15.0609 18.8213C15.3226 18.6678 15.6267 18.5804 15.9508 18.5804C16.3094 18.5804 16.6425 18.6869 16.9209 18.8706L18.5348 20.4942C18.4112 19.9115 18.3466 19.3065 18.3466 18.6869C18.3466 17.9754 18.4323 17.2841 18.5938 16.623L17.9211 15.9463L17.6014 15.6236L16.7884 14.8056C16.5522 14.6891 16.2872 14.6241 16.0065 14.6241C15.669 14.6241 15.3538 14.7194 15.0854 14.883L14.4906 15.4824C14.4906 15.4824 14.4906 15.4824 14.4906 15.4835L14.0239 15.953L1.22857 28.8247C0.982415 29.1003 0.844304 29.4746 0.879946 29.8813H0.875491Z" fill="#2563EB"/>
<path d="M12.283 32.3698C12.0925 32.6488 12.0012 33.004 12.0591 33.3782C12.1527 33.9832 12.6439 34.4639 13.2476 34.5423C13.6964 34.5995 14.1108 34.4415 14.4015 34.1558C14.4093 34.1479 14.417 34.1401 14.4248 34.1322L23.5859 24.9166C23.7385 24.6533 23.8253 24.3474 23.8253 24.0213C23.8253 23.646 23.7106 23.2975 23.5135 23.0107C23.3609 22.8717 23.2161 22.7227 23.0813 22.5681C22.9142 22.3787 22.7617 22.1804 22.6213 21.972C21.9463 20.9726 21.5721 19.7524 21.6245 18.4426C21.7525 15.2863 24.3934 12.7832 27.5332 12.8314C28.0834 12.8404 28.6147 12.9244 29.117 13.0768C29.117 13.0768 29.117 13.0768 29.1181 13.0768C29.2685 13.1216 29.4155 13.1731 29.5614 13.2303C29.675 13.2538 29.792 13.265 29.9123 13.265C30.0236 13.265 30.1328 13.2549 30.2386 13.2348C31.0628 13.0801 31.6877 12.353 31.6877 11.479C31.6877 11.0723 31.5529 10.697 31.3246 10.3967L30.9882 10.0583L24.0815 3.1104L23.7607 2.78771L22.9477 1.96978C22.7126 1.85325 22.4476 1.78827 22.1669 1.78827C21.8283 1.78827 21.512 1.88351 21.2435 2.04821L20.181 3.11712L7.53041 15.8443C7.53041 15.8443 7.52262 15.851 7.51816 15.8555L7.44799 15.9261C7.44799 15.9261 7.4402 15.9339 7.43686 15.9384C7.18736 16.214 7.04703 16.5894 7.08044 16.9984C7.13613 17.6684 7.67744 18.214 8.34349 18.2701C8.86809 18.3149 9.33923 18.0661 9.60988 17.6684L20.5775 6.63533L21.2246 5.98547C21.4863 5.83309 21.7893 5.74569 22.1134 5.74569C22.4721 5.74569 22.8051 5.85214 23.0847 6.03701L23.5992 6.55466L27.0865 10.0628C23.0657 10.2275 19.7566 13.1776 19.017 17.0465C18.9157 17.5776 18.8622 18.1255 18.8622 18.6869C18.8622 19.5575 18.9903 20.3978 19.2287 21.19C19.3902 21.7266 19.6018 22.2398 19.858 22.7261C19.9237 22.8202 19.9794 22.921 20.025 23.0275C20.1197 23.246 20.1721 23.4869 20.1721 23.7401C20.1721 24.111 20.0596 24.4561 19.8658 24.7418L12.2841 32.3687L12.283 32.3698Z" fill="#2563EB"/>
<path d="M30.1195 19.1922V19.7311C30.1195 19.9115 29.9736 20.0583 29.7943 20.0583H29.2586C29.0792 20.0583 28.9333 20.2051 28.9333 20.3855V20.9244C28.9333 21.1048 28.7874 21.2516 28.6081 21.2516H28.0724C27.893 21.2516 27.7471 21.1048 27.7471 20.9244V20.3855C27.7471 20.2051 27.6012 20.0583 27.4219 20.0583H26.885C26.7057 20.0583 26.5598 19.9115 26.5598 19.7311V19.1922C26.5598 19.0118 26.7057 18.865 26.885 18.865H27.4219C27.6012 18.865 27.7471 18.7182 27.7471 18.5378V17.9989C27.7471 17.8185 27.893 17.6717 28.0724 17.6717H28.6081C28.7874 17.6717 28.9333 17.8185 28.9333 17.9989V18.5378C28.9333 18.7182 29.0792 18.865 29.2586 18.865H29.7943C29.9736 18.865 30.1195 19.0118 30.1195 19.1922Z" fill="#2563EB"/>
<path d="M29.1673 24.0975H27.5144C27.3841 24.0975 27.2783 24.204 27.2783 24.3351V31.0107C27.2783 31.1418 27.3841 31.2482 27.5144 31.2482H29.1673C29.2976 31.2482 29.4035 31.1418 29.4035 31.0107V24.3351C29.4035 24.204 29.2976 24.0975 29.1673 24.0975Z" fill="#2563EB"/>
<path d="M35.1518 25.5115H31.9218C31.7915 25.5115 31.6857 25.618 31.6857 25.749V26.9972C31.6857 27.1283 31.7915 27.2348 31.9218 27.2348H35.1518C35.2821 27.2348 35.3868 27.1283 35.3868 26.9972V25.749C35.3868 25.618 35.2821 25.5115 35.1518 25.5115Z" fill="#2563EB"/>
<path d="M45.7507 30.8863L43.845 27.7524C43.7403 27.5911 43.6211 27.4521 43.4886 27.3345C43.4608 27.3098 43.4329 27.2863 43.4039 27.2628C43.2714 27.1575 43.2959 26.9491 43.4463 26.8706C43.6189 26.781 43.7782 26.6801 43.9241 26.5659C44.1736 26.3731 44.3819 26.1535 44.5512 25.9082C44.7205 25.6617 44.8486 25.3939 44.9354 25.1048C45.0223 24.8146 45.0657 24.5065 45.0657 24.1804C45.0657 23.7535 44.9922 23.358 44.8463 22.995C44.6993 22.632 44.4654 22.316 44.1435 22.0493C43.8216 21.7838 43.4051 21.5754 42.8961 21.4264C42.3859 21.2762 41.7711 21.2023 41.0483 21.2023H38.0354C37.9051 21.2023 37.8004 21.3076 37.8004 21.4387V31.0107C37.8004 31.1418 37.9051 31.2482 38.0354 31.2482H39.881C40.0113 31.2482 40.1171 31.1418 40.1171 31.0107V27.7692C40.1171 27.6381 40.2218 27.5317 40.3521 27.5317H40.7063C40.8845 27.5317 41.0215 27.5597 41.1173 27.618C41.2131 27.6751 41.3 27.7659 41.3779 27.8902L43.0364 30.8068C43.2057 31.1014 43.4841 31.2482 43.8729 31.2482H45.5491C45.734 31.2482 45.8465 31.0454 45.7507 30.8863ZM42.7078 24.9703C42.6432 25.1608 42.5408 25.3278 42.3993 25.4701C42.2578 25.6124 42.0752 25.7244 41.8547 25.804C41.633 25.8846 41.3646 25.925 41.0483 25.925H40.3521C40.2218 25.925 40.1171 25.8185 40.1171 25.6874V23.1832C40.1171 23.0521 40.2218 22.9457 40.3521 22.9457H41.0483C41.6475 22.9457 42.0897 23.0701 42.3748 23.3188C42.661 23.5664 42.8036 23.9115 42.8036 24.353C42.8036 24.5737 42.7713 24.7787 42.7078 24.9703Z" fill="#2563EB"/>
<path d="M50.0645 22.995H53.6921C53.8225 22.995 53.9271 22.8886 53.9271 22.7575V21.4387C53.9271 21.3076 53.8225 21.2023 53.6921 21.2023H47.7344C47.6041 21.2023 47.4983 21.3076 47.4983 21.4387V31.0107C47.4983 31.1418 47.6041 31.2482 47.7344 31.2482H53.6921C53.8225 31.2482 53.9271 31.1418 53.9271 31.0107V29.693C53.9271 29.5619 53.8225 29.4555 53.6921 29.4555H50.0645C49.9342 29.4555 49.8284 29.3491 49.8284 29.218V27.2998C49.8284 27.1687 49.9342 27.0622 50.0645 27.0622H52.732C52.8624 27.0622 52.9682 26.9558 52.9682 26.8247V25.5765C52.9682 25.4454 52.8624 25.339 52.732 25.339H50.0645C49.9342 25.339 49.8284 25.2325 49.8284 25.1014V23.2314C49.8284 23.1003 49.9342 22.995 50.0645 22.995Z" fill="#2563EB"/>
<path d="M64.8724 30.9244L61.1902 21.3535C61.1546 21.2617 61.0666 21.2023 60.9697 21.2023H58.9214C58.8245 21.2023 58.7365 21.2617 58.702 21.3535L55.0186 30.9244C54.9585 31.0802 55.0721 31.2482 55.2381 31.2482H56.7038C56.8954 31.2482 57.0569 31.1967 57.1872 31.0925C57.3175 30.9894 57.4066 30.8729 57.4579 30.7451L57.9925 29.1541C58.0248 29.0577 58.115 28.9928 58.2164 28.9928H61.6747C61.7761 28.9928 61.8663 29.0577 61.8986 29.1541L62.4332 30.7451C62.4978 30.8919 62.5914 31.0129 62.715 31.107C62.8386 31.2012 63.0001 31.2482 63.2017 31.2482H64.653C64.819 31.2482 64.9326 31.0802 64.8724 30.9244ZM60.9875 27.4073H58.9103C58.7487 27.4073 58.6351 27.2482 58.6864 27.0936L59.5006 24.6701C59.5685 24.4953 59.642 24.288 59.7189 24.0493L59.7222 24.0404C59.7579 23.9306 59.8525 23.8757 59.9472 23.8757C60.0419 23.8757 60.1365 23.9306 60.1722 24.0393C60.249 24.2757 60.3226 24.4818 60.3916 24.6566L61.2114 27.0936C61.2626 27.2482 61.149 27.4073 60.9875 27.4073Z" fill="#2563EB"/>
<path d="M72.2525 29.386H69.0235C68.8932 29.386 68.7874 29.2796 68.7874 29.1485V21.4387C68.7874 21.3076 68.6816 21.2023 68.5513 21.2023H66.7068C66.5765 21.2023 66.4707 21.3076 66.4707 21.4387V31.0107C66.4707 31.1418 66.5765 31.2482 66.7068 31.2482H72.2525C72.3828 31.2482 72.4886 31.1418 72.4886 31.0107V29.6236C72.4886 29.4925 72.3828 29.386 72.2525 29.386Z" fill="#2563EB"/>
<path d="M80.1282 21.2023H72.6635C72.5332 21.2023 72.4274 21.3076 72.4274 21.4387V22.8124C72.4274 22.9435 72.5332 23.0499 72.6635 23.0499H75.0014C75.1317 23.0499 75.2375 23.1563 75.2375 23.2874V31.0107C75.2375 31.1418 75.3433 31.2482 75.4736 31.2482H77.3181C77.4484 31.2482 77.5542 31.1418 77.5542 31.0107V23.2874C77.5542 23.1563 77.66 23.0499 77.7903 23.0499H80.1282C80.2585 23.0499 80.3643 22.9435 80.3643 22.8124V21.4387C80.3643 21.3076 80.2585 21.2023 80.1282 21.2023Z" fill="#2563EB"/>
<path d="M90.2136 21.2023H88.5686C88.4728 21.2023 88.3848 21.2168 88.3046 21.2471C88.2244 21.2762 88.1542 21.3154 88.0918 21.3636C88.0306 21.4118 87.9771 21.4656 87.9315 21.5261C87.8858 21.5855 87.8468 21.646 87.8145 21.7054L86.4167 24.6286C86.2975 24.8538 86.1939 25.0667 86.1048 25.2661C86.0948 25.2886 86.0848 25.3121 86.0747 25.3345C85.9934 25.5216 85.7328 25.5261 85.6459 25.3401C85.6359 25.3177 85.6248 25.2953 85.6147 25.2729C85.519 25.0734 85.4109 24.8583 85.2929 24.6286L83.8806 21.7054C83.8026 21.5586 83.7057 21.4376 83.5887 21.3435C83.4729 21.2493 83.3136 21.2023 83.1132 21.2023H81.4814C81.2999 21.2023 81.1863 21.4006 81.2776 21.5586L84.6569 27.3726C84.678 27.4084 84.6892 27.4499 84.6892 27.4925V31.0107C84.6892 31.1418 84.795 31.2482 84.9253 31.2482H86.7698C86.9001 31.2482 87.0059 31.1418 87.0059 31.0107V27.4925C87.0059 27.4499 87.017 27.4084 87.0382 27.3726L90.4175 21.5586C90.5099 21.4006 90.3963 21.2023 90.2136 21.2023Z" fill="#2563EB"/>
<path d="M28.1141 36.3104C28.1849 36.3104 28.2464 36.3015 28.2986 36.2838C28.3517 36.2661 28.395 36.2419 28.4285 36.2112C28.463 36.1795 28.4886 36.1422 28.5054 36.0994C28.5222 36.0565 28.5305 36.0094 28.5305 35.9582C28.5305 35.8557 28.4965 35.777 28.4285 35.722C28.3614 35.667 28.2585 35.6395 28.1197 35.6395H27.8793V36.3104H28.1141ZM29.0812 37.3697H28.7416C28.6773 37.3697 28.6307 37.3446 28.6018 37.2943L28.177 36.6472C28.1611 36.623 28.1434 36.6057 28.1239 36.5955C28.1052 36.5852 28.0773 36.5801 28.04 36.5801H27.8793V37.3697H27.5033V35.3489H28.1197C28.2566 35.3489 28.374 35.3633 28.4719 35.3922C28.5706 35.4201 28.6512 35.4597 28.7136 35.511C28.777 35.5622 28.8236 35.6237 28.8534 35.6955C28.8832 35.7663 28.8981 35.8445 28.8981 35.9302C28.8981 35.9983 28.8879 36.0625 28.8674 36.1231C28.8478 36.1837 28.8189 36.2386 28.7807 36.288C28.7434 36.3374 28.6969 36.3807 28.641 36.418C28.586 36.4553 28.5231 36.4846 28.4523 36.506C28.4765 36.52 28.4989 36.5368 28.5194 36.5564C28.5399 36.575 28.5585 36.5974 28.5753 36.6234L29.0812 37.3697ZM30.1798 36.4789C30.1798 36.4337 30.1732 36.3914 30.1601 36.3519C30.1478 36.3114 30.129 36.2761 30.1036 36.246C30.0782 36.2159 30.0457 36.1923 30.0062 36.1754C29.9676 36.1575 29.9224 36.1486 29.8707 36.1486C29.77 36.1486 29.6904 36.1773 29.6321 36.2347C29.5747 36.2921 29.538 36.3735 29.522 36.4789H30.1798ZM29.5149 36.6893C29.5205 36.7636 29.5337 36.8281 29.5544 36.8827C29.5751 36.9363 29.6024 36.981 29.6363 37.0168C29.6702 37.0516 29.7102 37.078 29.7563 37.0959C29.8034 37.1128 29.8551 37.1213 29.9116 37.1213C29.9681 37.1213 30.0165 37.1147 30.057 37.1015C30.0984 37.0883 30.1342 37.0737 30.1643 37.0577C30.1954 37.0417 30.2222 37.0272 30.2448 37.014C30.2683 37.0008 30.2909 36.9942 30.3125 36.9942C30.3417 36.9942 30.3634 37.005 30.3775 37.0267L30.4777 37.1537C30.4391 37.1989 30.3958 37.237 30.3478 37.2681C30.2998 37.2982 30.2495 37.3227 30.1968 37.3415C30.145 37.3594 30.0918 37.3721 30.0372 37.3796C29.9836 37.3872 29.9314 37.3909 29.8805 37.3909C29.7798 37.3909 29.6862 37.3745 29.5996 37.3415C29.513 37.3076 29.4377 37.2582 29.3737 37.1933C29.3097 37.1274 29.2594 37.0465 29.2227 36.9505C29.186 36.8535 29.1676 36.7415 29.1676 36.6145C29.1676 36.5156 29.1836 36.4229 29.2156 36.3363C29.2476 36.2488 29.2932 36.173 29.3525 36.109C29.4128 36.0441 29.4857 35.9928 29.5714 35.9552C29.658 35.9175 29.7554 35.8987 29.8636 35.8987C29.9549 35.8987 30.0391 35.9133 30.1163 35.9425C30.1935 35.9716 30.2598 36.0145 30.3154 36.0709C30.3709 36.1265 30.4142 36.1952 30.4452 36.277C30.4772 36.358 30.4932 36.4507 30.4932 36.5552C30.4932 36.6079 30.4876 36.6436 30.4763 36.6625C30.465 36.6803 30.4434 36.6893 30.4114 36.6893H29.5149ZM31.5201 36.7514C31.4194 36.7561 31.3347 36.765 31.266 36.7782C31.1973 36.7905 31.1422 36.8065 31.1008 36.8262C31.0594 36.846 31.0298 36.869 31.0119 36.8954C30.994 36.9217 30.985 36.9505 30.985 36.9815C30.985 37.0427 31.0029 37.0865 31.0387 37.1128C31.0754 37.1392 31.1229 37.1523 31.1813 37.1523C31.2528 37.1523 31.3145 37.1396 31.3662 37.1142C31.4189 37.0879 31.4702 37.0483 31.5201 36.9956V36.7514ZM30.721 36.1232C30.8876 35.9707 31.0881 35.8945 31.3225 35.8945C31.4072 35.8945 31.4829 35.9086 31.5498 35.9368C31.6166 35.9641 31.673 36.0027 31.7192 36.0526C31.7653 36.1015 31.8001 36.1603 31.8236 36.229C31.8481 36.2977 31.8603 36.373 31.8603 36.4549V37.3697H31.7022C31.6693 37.3697 31.6439 37.365 31.626 37.3556C31.6081 37.3453 31.594 37.325 31.5836 37.2949L31.5526 37.1905C31.5159 37.2234 31.4801 37.2526 31.4453 37.278C31.4105 37.3025 31.3742 37.3232 31.3366 37.3401C31.2989 37.357 31.2585 37.3697 31.2152 37.3782C31.1728 37.3876 31.1258 37.3923 31.074 37.3923C31.0128 37.3923 30.9563 37.3843 30.9046 37.3683C30.8528 37.3514 30.8081 37.3265 30.7705 37.2935C30.7328 37.2606 30.7036 37.2196 30.6829 37.1707C30.6622 37.1217 30.6519 37.0648 30.6519 36.9999C30.6519 36.9632 30.658 36.9269 30.6702 36.8912C30.6825 36.8545 30.7022 36.8196 30.7295 36.7867C30.7578 36.7537 30.794 36.7227 30.8382 36.6935C30.8825 36.6643 30.9366 36.6389 31.0006 36.6173C31.0655 36.5956 31.1408 36.5782 31.2265 36.565C31.3121 36.5509 31.41 36.5425 31.5201 36.5396V36.4549C31.5201 36.358 31.4994 36.2865 31.458 36.2403C31.4166 36.1933 31.3568 36.1697 31.2787 36.1697C31.2222 36.1697 31.1752 36.1763 31.1375 36.1895C31.1008 36.2027 31.0683 36.2177 31.0401 36.2347C31.0119 36.2507 30.986 36.2653 30.9625 36.2785C30.9399 36.2916 30.9145 36.2982 30.8862 36.2982C30.8618 36.2982 30.841 36.2921 30.8241 36.2799C30.8072 36.2667 30.7935 36.2516 30.7832 36.2347L30.721 36.1232ZM32.5417 35.2719V37.3697H32.193V35.2719H32.5417ZM34.0119 35.6305V36.1966H34.7263V36.4888H34.0119V37.0662H34.9183V37.3697H33.6308V35.3283H34.9183V35.6305H34.0119ZM36.0642 36.2036C36.0548 36.2187 36.045 36.2295 36.0346 36.2361C36.0242 36.2417 36.0111 36.2446 35.9951 36.2446C35.9781 36.2446 35.9598 36.2399 35.94 36.2305C35.9212 36.221 35.8991 36.2107 35.8737 36.1994C35.8482 36.1872 35.8191 36.1763 35.7861 36.1669C35.7541 36.1575 35.716 36.1528 35.6718 36.1528C35.6031 36.1528 35.549 36.1674 35.5094 36.1966C35.4708 36.2257 35.4515 36.2639 35.4515 36.3109C35.4515 36.342 35.4614 36.3683 35.4812 36.39C35.5019 36.4107 35.5287 36.429 35.5617 36.445C35.5955 36.461 35.6337 36.4756 35.676 36.4888C35.7184 36.501 35.7612 36.5147 35.8045 36.5297C35.8487 36.5448 35.892 36.5622 35.9344 36.582C35.9767 36.6008 36.0144 36.6253 36.0473 36.6554C36.0812 36.6846 36.108 36.7199 36.1278 36.7613C36.1485 36.8027 36.1588 36.8526 36.1588 36.9109C36.1588 36.9806 36.1461 37.045 36.1207 37.1043C36.0962 37.1627 36.0595 37.2135 36.0106 37.2568C35.9617 37.2992 35.901 37.3326 35.8285 37.357C35.757 37.3806 35.6741 37.3923 35.58 37.3923C35.5301 37.3923 35.4812 37.3876 35.4332 37.3782C35.3861 37.3697 35.3405 37.3575 35.2962 37.3415C35.253 37.3255 35.2125 37.3067 35.1748 37.285C35.1381 37.2634 35.1057 37.2399 35.0774 37.2145L35.1579 37.0817C35.1682 37.0657 35.1805 37.0535 35.1946 37.045C35.2087 37.0366 35.2266 37.0323 35.2482 37.0323C35.2699 37.0323 35.2901 37.0385 35.309 37.0507C35.3287 37.0629 35.3513 37.0761 35.3767 37.0902C35.4021 37.1043 35.4318 37.1175 35.4657 37.1297C35.5005 37.142 35.5442 37.1481 35.597 37.1481C35.6384 37.1481 35.6737 37.1434 35.7028 37.134C35.733 37.1236 35.7574 37.1105 35.7762 37.0945C35.796 37.0785 35.8101 37.0601 35.8186 37.0394C35.828 37.0177 35.8327 36.9956 35.8327 36.973C35.8327 36.9392 35.8224 36.9114 35.8017 36.8897C35.7819 36.8681 35.7551 36.8493 35.7212 36.8333C35.6882 36.8173 35.6501 36.8032 35.6068 36.7909C35.5645 36.7777 35.5207 36.7636 35.4755 36.7486C35.4313 36.7335 35.3875 36.7161 35.3442 36.6963C35.3019 36.6756 35.2638 36.6497 35.2299 36.6187C35.197 36.5876 35.1701 36.5495 35.1494 36.5043C35.1297 36.4592 35.1198 36.4046 35.1198 36.3406C35.1198 36.2813 35.1315 36.2248 35.1551 36.1712C35.1786 36.1175 35.213 36.0709 35.2581 36.0314C35.3042 35.9909 35.3612 35.9589 35.429 35.9354C35.4977 35.9109 35.5767 35.8987 35.6661 35.8987C35.7659 35.8987 35.8567 35.9152 35.9386 35.9481C36.0205 35.981 36.0887 36.0243 36.1433 36.078L36.0642 36.2036ZM36.9041 37.3923C36.778 37.3923 36.6811 37.357 36.6133 37.2865C36.5465 37.2149 36.5131 37.1166 36.5131 36.9914V36.1825H36.3648C36.346 36.1825 36.33 36.1763 36.3168 36.1641C36.3036 36.1519 36.2971 36.1335 36.2971 36.109V35.9707L36.53 35.9326L36.6034 35.5373C36.6081 35.5185 36.6171 35.5039 36.6302 35.4935C36.6434 35.4832 36.6604 35.478 36.6811 35.478H36.8618V35.934H37.2486V36.1825H36.8618V36.9674C36.8618 37.0126 36.8726 37.0479 36.8942 37.0733C36.9168 37.0987 36.9474 37.1114 36.986 37.1114C37.0076 37.1114 37.0255 37.109 37.0396 37.1043C37.0547 37.0987 37.0674 37.093 37.0778 37.0874C37.0891 37.0817 37.0989 37.0766 37.1074 37.0719C37.1159 37.0662 37.1244 37.0634 37.1328 37.0634C37.1432 37.0634 37.1516 37.0662 37.1582 37.0719C37.1648 37.0766 37.1719 37.0841 37.1794 37.0945L37.2839 37.2639C37.2331 37.3062 37.1747 37.3382 37.1088 37.3599C37.0429 37.3815 36.9747 37.3923 36.9041 37.3923ZM38.237 36.7514C38.1363 36.7561 38.0516 36.765 37.9829 36.7782C37.9142 36.7905 37.8591 36.8065 37.8177 36.8262C37.7763 36.846 37.7467 36.869 37.7288 36.8954C37.7109 36.9217 37.702 36.9505 37.702 36.9815C37.702 37.0427 37.7198 37.0865 37.7556 37.1128C37.7923 37.1392 37.8398 37.1523 37.8982 37.1523C37.9697 37.1523 38.0314 37.1396 38.0831 37.1142C38.1358 37.0879 38.1871 37.0483 38.237 36.9956V36.7514ZM37.438 36.1232C37.6045 35.9707 37.805 35.8945 38.0394 35.8945C38.1241 35.8945 38.1998 35.9086 38.2667 35.9368C38.3335 35.9641 38.39 36.0027 38.4361 36.0526C38.4822 36.1015 38.517 36.1603 38.5405 36.229C38.565 36.2977 38.5773 36.373 38.5773 36.4549V37.3697H38.4191C38.3862 37.3697 38.3608 37.365 38.3429 37.3556C38.325 37.3453 38.3109 37.325 38.3005 37.2949L38.2695 37.1905C38.2328 37.2234 38.197 37.2526 38.1622 37.278C38.1274 37.3025 38.0911 37.3232 38.0535 37.3401C38.0158 37.357 37.9754 37.3697 37.9321 37.3782C37.8897 37.3876 37.8427 37.3923 37.7909 37.3923C37.7297 37.3923 37.6733 37.3843 37.6215 37.3683C37.5697 37.3514 37.525 37.3265 37.4874 37.2935C37.4497 37.2606 37.4205 37.2196 37.3998 37.1707C37.3791 37.1217 37.3688 37.0648 37.3688 36.9999C37.3688 36.9632 37.3749 36.9269 37.3871 36.8912C37.3994 36.8545 37.4191 36.8196 37.4464 36.7867C37.4747 36.7537 37.5109 36.7227 37.5551 36.6935C37.5994 36.6643 37.6535 36.6389 37.7175 36.6173C37.7824 36.5956 37.8577 36.5782 37.9434 36.565C38.029 36.5509 38.1269 36.5425 38.237 36.5396V36.4549C38.237 36.358 38.2163 36.2865 38.1749 36.2403C38.1335 36.1933 38.0737 36.1697 37.9956 36.1697C37.9391 36.1697 37.8921 36.1763 37.8544 36.1895C37.8177 36.2027 37.7853 36.2177 37.757 36.2347C37.7288 36.2507 37.7029 36.2653 37.6794 36.2785C37.6568 36.2916 37.6314 36.2982 37.6031 36.2982C37.5787 36.2982 37.558 36.2921 37.541 36.2799C37.5241 36.2667 37.5104 36.2516 37.5001 36.2347L37.438 36.1232ZM39.3692 37.3923C39.2431 37.3923 39.1461 37.357 39.0784 37.2865C39.0115 37.2149 38.9781 37.1166 38.9781 36.9914V36.1825H38.8299C38.8111 36.1825 38.7951 36.1763 38.7819 36.1641C38.7687 36.1519 38.7621 36.1335 38.7621 36.109V35.9707L38.9951 35.9326L39.0685 35.5373C39.0732 35.5185 39.0821 35.5039 39.0953 35.4935C39.1085 35.4832 39.1254 35.478 39.1461 35.478H39.3268V35.934H39.7137V36.1825H39.3268V36.9674C39.3268 37.0126 39.3377 37.0479 39.3593 37.0733C39.3819 37.0987 39.4125 37.1114 39.4511 37.1114C39.4727 37.1114 39.4906 37.109 39.5047 37.1043C39.5198 37.0987 39.5325 37.093 39.5428 37.0874C39.5541 37.0817 39.564 37.0766 39.5725 37.0719C39.581 37.0662 39.5894 37.0634 39.5979 37.0634C39.6082 37.0634 39.6167 37.0662 39.6233 37.0719C39.6299 37.0766 39.637 37.0841 39.6445 37.0945L39.749 37.2639C39.6981 37.3062 39.6398 37.3382 39.5739 37.3599C39.508 37.3815 39.4398 37.3923 39.3692 37.3923ZM40.8591 36.4789C40.8591 36.4337 40.8525 36.3914 40.8393 36.3519C40.8271 36.3114 40.8082 36.2761 40.7828 36.246C40.7574 36.2159 40.7249 36.1923 40.6854 36.1754C40.6468 36.1575 40.6017 36.1486 40.5499 36.1486C40.4492 36.1486 40.3697 36.1773 40.3113 36.2347C40.2539 36.2921 40.2172 36.3735 40.2012 36.4789H40.8591ZM40.1941 36.6893C40.1998 36.7636 40.2129 36.8281 40.2337 36.8827C40.2544 36.9363 40.2817 36.981 40.3155 37.0168C40.3494 37.0516 40.3894 37.078 40.4355 37.0959C40.4826 37.1128 40.5344 37.1213 40.5908 37.1213C40.6473 37.1213 40.6958 37.1147 40.7362 37.1015C40.7777 37.0883 40.8134 37.0737 40.8435 37.0577C40.8746 37.0417 40.9014 37.0272 40.924 37.014C40.9475 37.0008 40.9701 36.9942 40.9918 36.9942C41.0209 36.9942 41.0426 37.005 41.0567 37.0267L41.1569 37.1537C41.1184 37.1989 41.0751 37.237 41.0271 37.2681C40.9791 37.2982 40.9287 37.3227 40.876 37.3415C40.8242 37.3594 40.7711 37.3721 40.7165 37.3796C40.6628 37.3872 40.6106 37.3909 40.5598 37.3909C40.4591 37.3909 40.3654 37.3745 40.2788 37.3415C40.1922 37.3076 40.1169 37.2582 40.0529 37.1933C39.9889 37.1274 39.9386 37.0465 39.9019 36.9505C39.8652 36.8535 39.8468 36.7415 39.8468 36.6145C39.8468 36.5156 39.8628 36.4229 39.8948 36.3363C39.9268 36.2488 39.9725 36.173 40.0318 36.109C40.092 36.0441 40.1649 35.9928 40.2506 35.9552C40.3372 35.9175 40.4346 35.8987 40.5428 35.8987C40.6341 35.8987 40.7184 35.9133 40.7955 35.9425C40.8727 35.9716 40.9391 36.0145 40.9946 36.0709C41.0501 36.1265 41.0934 36.1952 41.1245 36.277C41.1565 36.358 41.1725 36.4507 41.1725 36.5552C41.1725 36.6079 41.1668 36.6436 41.1555 36.6625C41.1442 36.6803 41.1226 36.6893 41.0906 36.6893H40.1941ZM44.3894 35.3283V37.3697H44.0549V36.0512C44.0549 35.9985 44.0577 35.9415 44.0633 35.8803L43.4464 37.0394C43.4172 37.0949 43.3725 37.1227 43.3123 37.1227H43.2586C43.1984 37.1227 43.1537 37.0949 43.1245 37.0394L42.5005 35.8761C42.5033 35.9072 42.5057 35.9377 42.5076 35.9679C42.5094 35.998 42.5104 36.0257 42.5104 36.0512V37.3697H42.1758V35.3283H42.4624C42.4793 35.3283 42.4939 35.3288 42.5062 35.3297C42.5184 35.3307 42.5292 35.333 42.5386 35.3368C42.549 35.3406 42.5579 35.3467 42.5654 35.3552C42.5739 35.3636 42.5819 35.3749 42.5894 35.389L43.2007 36.5227C43.2167 36.5528 43.2313 36.5839 43.2445 36.6159C43.2586 36.6479 43.2723 36.6808 43.2854 36.7147C43.2986 36.6799 43.3123 36.6465 43.3264 36.6145C43.3405 36.5815 43.3556 36.55 43.3716 36.5199L43.9744 35.389C43.9819 35.3749 43.9899 35.3636 43.9984 35.3552C44.0069 35.3467 44.0158 35.3406 44.0252 35.3368C44.0356 35.333 44.0469 35.3307 44.0591 35.3297C44.0713 35.3288 44.0859 35.3283 44.1029 35.3283H44.3894ZM45.5192 36.7514C45.4185 36.7561 45.3338 36.765 45.2651 36.7782C45.1964 36.7905 45.1413 36.8065 45.0999 36.8262C45.0585 36.846 45.0288 36.869 45.011 36.8954C44.9931 36.9217 44.9841 36.9505 44.9841 36.9815C44.9841 37.0427 45.002 37.0865 45.0378 37.1128C45.0745 37.1392 45.122 37.1523 45.1804 37.1523C45.2519 37.1523 45.3135 37.1396 45.3653 37.1142C45.418 37.0879 45.4693 37.0483 45.5192 36.9956V36.7514ZM44.7201 36.1232C44.8867 35.9707 45.0872 35.8945 45.3215 35.8945C45.4062 35.8945 45.482 35.9086 45.5488 35.9368C45.6157 35.9641 45.6721 36.0027 45.7182 36.0526C45.7644 36.1015 45.7992 36.1603 45.8227 36.229C45.8472 36.2977 45.8594 36.373 45.8594 36.4549V37.3697H45.7013C45.6684 37.3697 45.643 37.365 45.6251 37.3556C45.6072 37.3453 45.5931 37.325 45.5827 37.2949L45.5517 37.1905C45.515 37.2234 45.4792 37.2526 45.4444 37.278C45.4095 37.3025 45.3733 37.3232 45.3357 37.3401C45.298 37.357 45.2575 37.3697 45.2142 37.3782C45.1719 37.3876 45.1248 37.3923 45.0731 37.3923C45.0119 37.3923 44.9554 37.3843 44.9037 37.3683C44.8519 37.3514 44.8072 37.3265 44.7695 37.2935C44.7319 37.2606 44.7027 37.2196 44.682 37.1707C44.6613 37.1217 44.651 37.0648 44.651 36.9999C44.651 36.9632 44.6571 36.9269 44.6693 36.8912C44.6815 36.8545 44.7013 36.8196 44.7286 36.7867C44.7568 36.7537 44.7931 36.7227 44.8373 36.6935C44.8815 36.6643 44.9357 36.6389 44.9997 36.6173C45.0646 36.5956 45.1399 36.5782 45.2255 36.565C45.3112 36.5509 45.4091 36.5425 45.5192 36.5396V36.4549C45.5192 36.358 45.4985 36.2865 45.4571 36.2403C45.4157 36.1933 45.3559 36.1697 45.2778 36.1697C45.2213 36.1697 45.1742 36.1763 45.1366 36.1895C45.0999 36.2027 45.0674 36.2177 45.0392 36.2347C45.011 36.2507 44.9851 36.2653 44.9615 36.2785C44.939 36.2916 44.9135 36.2982 44.8853 36.2982C44.8608 36.2982 44.8401 36.2921 44.8232 36.2799C44.8062 36.2667 44.7926 36.2516 44.7822 36.2347L44.7201 36.1232ZM47.097 36.2912C47.0575 36.2432 47.0142 36.2093 46.9671 36.1895C46.921 36.1697 46.8711 36.1599 46.8175 36.1599C46.7648 36.1599 46.7172 36.1697 46.6749 36.1895C46.6325 36.2093 46.5963 36.2394 46.5662 36.2799C46.5361 36.3194 46.513 36.3702 46.497 36.4323C46.481 36.4935 46.473 36.566 46.473 36.6497C46.473 36.7345 46.4796 36.8065 46.4928 36.8657C46.5069 36.9241 46.5267 36.9721 46.5521 37.0097C46.5775 37.0465 46.6085 37.0733 46.6452 37.0902C46.682 37.1062 46.7229 37.1142 46.7681 37.1142C46.8405 37.1142 46.9022 37.0992 46.953 37.069C47.0038 37.0389 47.0518 36.9961 47.097 36.9406V36.2912ZM47.4457 35.2719V37.3697H47.2325C47.1864 37.3697 47.1572 37.3486 47.145 37.3062L47.1154 37.1665C47.057 37.2333 46.9897 37.2874 46.9135 37.3288C46.8382 37.3702 46.7502 37.3909 46.6495 37.3909C46.5704 37.3909 46.498 37.3745 46.4321 37.3415C46.3662 37.3086 46.3092 37.261 46.2612 37.1989C46.2142 37.1359 46.1775 37.0582 46.1511 36.966C46.1257 36.8737 46.113 36.7683 46.113 36.6497C46.113 36.5425 46.1276 36.4427 46.1568 36.3505C46.186 36.2582 46.2278 36.1782 46.2824 36.1105C46.337 36.0427 46.4024 35.99 46.4787 35.9523C46.5549 35.9137 46.6405 35.8945 46.7356 35.8945C46.8165 35.8945 46.8857 35.9072 46.9431 35.9326C47.0005 35.958 47.0518 35.9923 47.097 36.0356V35.2719H47.4457ZM48.723 36.4789C48.723 36.4337 48.7164 36.3914 48.7033 36.3519C48.691 36.3114 48.6722 36.2761 48.6468 36.246C48.6214 36.2159 48.5889 36.1923 48.5494 36.1754C48.5108 36.1575 48.4656 36.1486 48.4139 36.1486C48.3132 36.1486 48.2336 36.1773 48.1753 36.2347C48.1179 36.2921 48.0812 36.3735 48.0652 36.4789H48.723ZM48.0581 36.6893C48.0637 36.7636 48.0769 36.8281 48.0976 36.8827C48.1183 36.9363 48.1456 36.981 48.1795 37.0168C48.2134 37.0516 48.2534 37.078 48.2995 37.0959C48.3466 37.1128 48.3983 37.1213 48.4548 37.1213C48.5113 37.1213 48.5597 37.1147 48.6002 37.1015C48.6416 37.0883 48.6774 37.0737 48.7075 37.0577C48.7386 37.0417 48.7654 37.0272 48.788 37.014C48.8115 37.0008 48.8341 36.9942 48.8557 36.9942C48.8849 36.9942 48.9066 37.005 48.9207 37.0267L49.0209 37.1537C48.9823 37.1989 48.939 37.237 48.891 37.2681C48.843 37.2982 48.7927 37.3227 48.74 37.3415C48.6882 37.3594 48.635 37.3721 48.5804 37.3796C48.5268 37.3872 48.4746 37.3909 48.4237 37.3909C48.323 37.3909 48.2294 37.3745 48.1428 37.3415C48.0562 37.3076 47.9809 37.2582 47.9169 37.1933C47.8529 37.1274 47.8026 37.0465 47.7659 36.9505C47.7292 36.8535 47.7108 36.7415 47.7108 36.6145C47.7108 36.5156 47.7268 36.4229 47.7588 36.3363C47.7908 36.2488 47.8364 36.173 47.8957 36.109C47.956 36.0441 48.0289 35.9928 48.1146 35.9552C48.2012 35.9175 48.2986 35.8987 48.4068 35.8987C48.4981 35.8987 48.5823 35.9133 48.6595 35.9425C48.7367 35.9716 48.803 36.0145 48.8586 36.0709C48.9141 36.1265 48.9574 36.1952 48.9884 36.277C49.0204 36.358 49.0364 36.4507 49.0364 36.5552C49.0364 36.6079 49.0308 36.6436 49.0195 36.6625C49.0082 36.6803 48.9866 36.6893 48.9546 36.6893H48.0581ZM51.1268 35.6996C51.1155 35.7194 51.1033 35.734 51.0901 35.7434C51.0779 35.7519 51.0624 35.7561 51.0435 35.7561C51.0238 35.7561 51.0021 35.749 50.9786 35.7349C50.956 35.7199 50.9287 35.7034 50.8967 35.6855C50.8647 35.6676 50.8271 35.6516 50.7838 35.6375C50.7414 35.6225 50.6911 35.6149 50.6327 35.6149C50.58 35.6149 50.5339 35.6215 50.4944 35.6347C50.4548 35.6469 50.4214 35.6643 50.3941 35.6869C50.3678 35.7095 50.348 35.7368 50.3348 35.7688C50.3217 35.7999 50.3151 35.8342 50.3151 35.8719C50.3151 35.9199 50.3282 35.9599 50.3546 35.9919C50.3819 36.0239 50.4177 36.0512 50.4619 36.0737C50.5061 36.0963 50.5565 36.1166 50.6129 36.1345C50.6694 36.1523 50.7273 36.1716 50.7866 36.1923C50.8459 36.2121 50.9038 36.2356 50.9602 36.2629C51.0167 36.2893 51.0671 36.3232 51.1113 36.3646C51.1555 36.405 51.1908 36.4549 51.2172 36.5142C51.2445 36.5735 51.2581 36.6455 51.2581 36.7302C51.2581 36.8225 51.2421 36.909 51.2101 36.99C51.1791 37.07 51.1329 37.1401 51.0718 37.2003C51.0115 37.2596 50.9377 37.3067 50.8501 37.3415C50.7626 37.3754 50.6624 37.3923 50.5494 37.3923C50.4845 37.3923 50.4205 37.3857 50.3574 37.3726C50.2944 37.3603 50.2337 37.3425 50.1753 37.3189C50.1179 37.2954 50.0638 37.2672 50.0129 37.2342C49.9621 37.2013 49.9169 37.1646 49.8774 37.1241L49.9889 36.942C49.9984 36.9288 50.0106 36.918 50.0257 36.9095C50.0407 36.9001 50.0567 36.8954 50.0737 36.8954C50.0972 36.8954 50.1226 36.9053 50.1499 36.925C50.1772 36.9439 50.2097 36.965 50.2473 36.9886C50.2849 37.0121 50.3287 37.0337 50.3786 37.0535C50.4294 37.0723 50.4901 37.0817 50.5607 37.0817C50.6689 37.0817 50.7527 37.0563 50.812 37.0055C50.8713 36.9537 50.9009 36.8799 50.9009 36.7839C50.9009 36.7302 50.8873 36.6865 50.86 36.6526C50.8337 36.6187 50.7984 36.5905 50.7541 36.5679C50.7099 36.5443 50.6595 36.5246 50.6031 36.5086C50.5466 36.4926 50.4892 36.4752 50.4308 36.4563C50.3725 36.4375 50.3151 36.4149 50.2586 36.3886C50.2021 36.3622 50.1518 36.3279 50.1075 36.2855C50.0633 36.2432 50.0275 36.1905 50.0002 36.1274C49.9739 36.0634 49.9607 35.9848 49.9607 35.8916C49.9607 35.8173 49.9753 35.7448 50.0045 35.6742C50.0346 35.6036 50.0779 35.541 50.1344 35.4865C50.1908 35.4319 50.2605 35.3881 50.3433 35.3552C50.4261 35.3222 50.5212 35.3057 50.6285 35.3057C50.7489 35.3057 50.86 35.3246 50.9617 35.3622C51.0633 35.3999 51.1499 35.4526 51.2214 35.5203L51.1268 35.6996ZM52.462 36.4789C52.462 36.4337 52.4554 36.3914 52.4422 36.3519C52.43 36.3114 52.4112 36.2761 52.3858 36.246C52.3604 36.2159 52.3279 36.1923 52.2884 36.1754C52.2498 36.1575 52.2046 36.1486 52.1528 36.1486C52.0521 36.1486 51.9726 36.1773 51.9142 36.2347C51.8568 36.2921 51.8201 36.3735 51.8041 36.4789H52.462ZM51.7971 36.6893C51.8027 36.7636 51.8159 36.8281 51.8366 36.8827C51.8573 36.9363 51.8846 36.981 51.9185 37.0168C51.9524 37.0516 51.9924 37.078 52.0385 37.0959C52.0855 37.1128 52.1373 37.1213 52.1938 37.1213C52.2502 37.1213 52.2987 37.1147 52.3392 37.1015C52.3806 37.0883 52.4164 37.0737 52.4465 37.0577C52.4775 37.0417 52.5044 37.0272 52.5269 37.014C52.5505 37.0008 52.5731 36.9942 52.5947 36.9942C52.6239 36.9942 52.6455 37.005 52.6597 37.0267L52.7599 37.1537C52.7213 37.1989 52.678 37.237 52.63 37.2681C52.582 37.2982 52.5317 37.3227 52.4789 37.3415C52.4272 37.3594 52.374 37.3721 52.3194 37.3796C52.2658 37.3872 52.2135 37.3909 52.1627 37.3909C52.062 37.3909 51.9684 37.3745 51.8818 37.3415C51.7952 37.3076 51.7199 37.2582 51.6559 37.1933C51.5919 37.1274 51.5415 37.0465 51.5048 36.9505C51.4681 36.8535 51.4498 36.7415 51.4498 36.6145C51.4498 36.5156 51.4658 36.4229 51.4978 36.3363C51.5298 36.2488 51.5754 36.173 51.6347 36.109C51.6949 36.0441 51.7679 35.9928 51.8535 35.9552C51.9401 35.9175 52.0375 35.8987 52.1458 35.8987C52.2371 35.8987 52.3213 35.9133 52.3985 35.9425C52.4757 35.9716 52.542 36.0145 52.5975 36.0709C52.6531 36.1265 52.6964 36.1952 52.7274 36.277C52.7594 36.358 52.7754 36.4507 52.7754 36.5552C52.7754 36.6079 52.7698 36.6436 52.7585 36.6625C52.7472 36.6803 52.7255 36.6893 52.6935 36.6893H51.7971ZM54.0747 36.2276C54.0644 36.2408 54.054 36.2512 54.0437 36.2587C54.0343 36.2662 54.0202 36.27 54.0013 36.27C53.9835 36.27 53.966 36.2648 53.9491 36.2545C53.9322 36.2432 53.9119 36.2309 53.8884 36.2177C53.8649 36.2036 53.8366 36.1914 53.8037 36.181C53.7717 36.1697 53.7317 36.1641 53.6837 36.1641C53.6225 36.1641 53.5689 36.1754 53.5227 36.198C53.4766 36.2196 53.438 36.2512 53.407 36.2926C53.3769 36.334 53.3543 36.3843 53.3392 36.4436C53.3242 36.502 53.3166 36.5683 53.3166 36.6427C53.3166 36.7199 53.3246 36.7886 53.3406 36.8488C53.3576 36.909 53.3816 36.9599 53.4126 37.0013C53.4437 37.0417 53.4813 37.0728 53.5256 37.0945C53.5698 37.1152 53.6197 37.1255 53.6752 37.1255C53.7307 37.1255 53.7755 37.1189 53.8093 37.1057C53.8442 37.0916 53.8733 37.0766 53.8969 37.0606C53.9204 37.0436 53.9406 37.0286 53.9576 37.0154C53.9755 37.0013 53.9952 36.9942 54.0169 36.9942C54.0451 36.9942 54.0663 37.005 54.0804 37.0267L54.1806 37.1537C54.142 37.1989 54.1002 37.237 54.055 37.2681C54.0098 37.2982 53.9627 37.3227 53.9138 37.3415C53.8658 37.3594 53.8159 37.3721 53.7642 37.3796C53.7133 37.3872 53.6625 37.3909 53.6117 37.3909C53.5223 37.3909 53.438 37.3745 53.359 37.3415C53.2799 37.3076 53.2107 37.2587 53.1515 37.1947C53.0922 37.1307 53.0451 37.0526 53.0103 36.9603C52.9764 36.8672 52.9595 36.7613 52.9595 36.6427C52.9595 36.5363 52.9745 36.438 53.0046 36.3476C53.0357 36.2563 53.0809 36.1777 53.1402 36.1119C53.1995 36.045 53.2729 35.9928 53.3604 35.9552C53.4479 35.9175 53.5486 35.8987 53.6625 35.8987C53.7707 35.8987 53.8653 35.9161 53.9463 35.9509C54.0282 35.9857 54.1016 36.0356 54.1665 36.1006L54.0747 36.2276ZM55.6472 35.9213V37.3697H55.4341C55.3879 37.3697 55.3588 37.3486 55.3465 37.3062L55.3225 37.1905C55.2632 37.2507 55.1978 37.2996 55.1263 37.3373C55.0548 37.374 54.9705 37.3923 54.8736 37.3923C54.7945 37.3923 54.7244 37.3792 54.6632 37.3528C54.603 37.3255 54.5522 37.2874 54.5108 37.2385C54.4694 37.1895 54.4378 37.1316 54.4162 37.0648C54.3955 36.997 54.3851 36.9227 54.3851 36.8417V35.9213H54.7338V36.8417C54.7338 36.9302 54.7541 36.9989 54.7945 37.0479C54.8359 37.0959 54.8976 37.1199 54.9795 37.1199C55.0397 37.1199 55.0962 37.1067 55.1489 37.0803C55.2016 37.053 55.2515 37.0159 55.2985 36.9688V35.9213H55.6472ZM56.3219 36.1726C56.3671 36.086 56.4207 36.0182 56.4829 35.9693C56.545 35.9194 56.6184 35.8945 56.7031 35.8945C56.7699 35.8945 56.8236 35.909 56.864 35.9382L56.8415 36.1994C56.8367 36.2163 56.8297 36.2286 56.8203 36.2361C56.8118 36.2427 56.8 36.246 56.785 36.246C56.7709 36.246 56.7497 36.2436 56.7215 36.2389C56.6942 36.2342 56.6673 36.2319 56.641 36.2319C56.6024 36.2319 56.568 36.2375 56.5379 36.2488C56.5078 36.2601 56.4805 36.2766 56.456 36.2982C56.4325 36.3189 56.4113 36.3443 56.3925 36.3745C56.3746 36.4046 56.3577 36.4389 56.3417 36.4775V37.3697H55.993V35.9213H56.1977C56.2335 35.9213 56.2584 35.9279 56.2725 35.941C56.2866 35.9533 56.296 35.9759 56.3007 36.0088L56.3219 36.1726ZM57.9381 36.4789C57.9381 36.4337 57.9315 36.3914 57.9183 36.3519C57.9061 36.3114 57.8873 36.2761 57.8619 36.246C57.8365 36.2159 57.804 36.1923 57.7645 36.1754C57.7259 36.1575 57.6807 36.1486 57.6289 36.1486C57.5282 36.1486 57.4487 36.1773 57.3903 36.2347C57.3329 36.2921 57.2962 36.3735 57.2802 36.4789H57.9381ZM57.2732 36.6893C57.2788 36.7636 57.292 36.8281 57.3127 36.8827C57.3334 36.9363 57.3607 36.981 57.3946 37.0168C57.4285 37.0516 57.4685 37.078 57.5146 37.0959C57.5616 37.1128 57.6134 37.1213 57.6699 37.1213C57.7263 37.1213 57.7748 37.1147 57.8153 37.1015C57.8567 37.0883 57.8925 37.0737 57.9226 37.0577C57.9536 37.0417 57.9805 37.0272 58.003 37.014C58.0266 37.0008 58.0492 36.9942 58.0708 36.9942C58.1 36.9942 58.1216 37.005 58.1358 37.0267L58.236 37.1537C58.1974 37.1989 58.1541 37.237 58.1061 37.2681C58.0581 37.2982 58.0078 37.3227 57.955 37.3415C57.9033 37.3594 57.8501 37.3721 57.7955 37.3796C57.7419 37.3872 57.6896 37.3909 57.6388 37.3909C57.5381 37.3909 57.4445 37.3745 57.3579 37.3415C57.2713 37.3076 57.196 37.2582 57.132 37.1933C57.068 37.1274 57.0176 37.0465 56.9809 36.9505C56.9442 36.8535 56.9259 36.7415 56.9259 36.6145C56.9259 36.5156 56.9419 36.4229 56.9739 36.3363C57.0059 36.2488 57.0515 36.173 57.1108 36.109C57.171 36.0441 57.244 35.9928 57.3296 35.9552C57.4162 35.9175 57.5136 35.8987 57.6219 35.8987C57.7132 35.8987 57.7974 35.9133 57.8746 35.9425C57.9518 35.9716 58.0181 36.0145 58.0736 36.0709C58.1292 36.1265 58.1725 36.1952 58.2035 36.277C58.2355 36.358 58.2515 36.4507 58.2515 36.5552C58.2515 36.6079 58.2459 36.6436 58.2346 36.6625C58.2233 36.6803 58.2016 36.6893 58.1696 36.6893H57.2732ZM58.5076 37.7156C58.4906 37.7015 58.4821 37.6841 58.4821 37.6634C58.4821 37.6559 58.4845 37.6474 58.4892 37.638C58.4949 37.6286 58.5014 37.6201 58.509 37.6126C58.5193 37.6013 58.532 37.5872 58.5471 37.5702C58.5621 37.5542 58.5772 37.5354 58.5923 37.5137C58.6073 37.493 58.621 37.47 58.6332 37.4446C58.6464 37.4201 58.6563 37.3937 58.6629 37.3655C58.6327 37.3655 58.6054 37.3603 58.581 37.35C58.5565 37.3387 58.5353 37.3236 58.5174 37.3048C58.5005 37.286 58.4869 37.2639 58.4765 37.2385C58.4671 37.213 58.4624 37.1853 58.4624 37.1552C58.4624 37.1288 58.4671 37.1043 58.4765 37.0817C58.4869 37.0582 58.501 37.038 58.5189 37.021C58.5367 37.0032 58.5584 36.9895 58.5838 36.9801C58.6092 36.9697 58.637 36.9646 58.6671 36.9646C58.7029 36.9646 58.7339 36.9712 58.7603 36.9843C58.7876 36.9966 58.8097 37.014 58.8266 37.0366C58.8445 37.0582 58.8577 37.0836 58.8661 37.1128C58.8756 37.141 58.8803 37.1712 58.8803 37.2032C58.8803 37.2483 58.8732 37.2959 58.8591 37.3457C58.8459 37.3956 58.8261 37.4455 58.7998 37.4954C58.7734 37.5453 58.7405 37.5937 58.701 37.6408C58.6624 37.6879 58.6181 37.7312 58.5683 37.7707L58.5076 37.7156ZM61.0037 35.6996C60.9924 35.7194 60.9801 35.734 60.967 35.7434C60.9547 35.7519 60.9392 35.7561 60.9204 35.7561C60.9006 35.7561 60.879 35.749 60.8554 35.7349C60.8328 35.7199 60.8056 35.7034 60.7736 35.6855C60.7416 35.6676 60.7039 35.6516 60.6606 35.6375C60.6183 35.6225 60.5679 35.6149 60.5096 35.6149C60.4568 35.6149 60.4107 35.6215 60.3712 35.6347C60.3317 35.6469 60.2983 35.6643 60.271 35.6869C60.2446 35.7095 60.2248 35.7368 60.2117 35.7688C60.1985 35.7999 60.1919 35.8342 60.1919 35.8719C60.1919 35.9199 60.2051 35.9599 60.2314 35.9919C60.2587 36.0239 60.2945 36.0512 60.3387 36.0737C60.383 36.0963 60.4333 36.1166 60.4898 36.1345C60.5463 36.1523 60.6041 36.1716 60.6634 36.1923C60.7227 36.2121 60.7806 36.2356 60.8371 36.2629C60.8936 36.2893 60.9439 36.3232 60.9881 36.3646C61.0324 36.405 61.0677 36.4549 61.094 36.5142C61.1213 36.5735 61.135 36.6455 61.135 36.7302C61.135 36.8225 61.119 36.909 61.087 36.99C61.0559 37.07 61.0098 37.1401 60.9486 37.2003C60.8884 37.2596 60.8145 37.3067 60.727 37.3415C60.6394 37.3754 60.5392 37.3923 60.4263 37.3923C60.3613 37.3923 60.2973 37.3857 60.2343 37.3726C60.1712 37.3603 60.1105 37.3425 60.0521 37.3189C59.9947 37.2954 59.9406 37.2672 59.8898 37.2342C59.839 37.2013 59.7938 37.1646 59.7543 37.1241L59.8658 36.942C59.8752 36.9288 59.8874 36.918 59.9025 36.9095C59.9176 36.9001 59.9336 36.8954 59.9505 36.8954C59.974 36.8954 59.9994 36.9053 60.0267 36.925C60.054 36.9439 60.0865 36.965 60.1241 36.9886C60.1618 37.0121 60.2056 37.0337 60.2554 37.0535C60.3063 37.0723 60.367 37.0817 60.4376 37.0817C60.5458 37.0817 60.6296 37.0563 60.6888 37.0055C60.7481 36.9537 60.7778 36.8799 60.7778 36.7839C60.7778 36.7302 60.7641 36.6865 60.7368 36.6526C60.7105 36.6187 60.6752 36.5905 60.631 36.5679C60.5867 36.5443 60.5364 36.5246 60.4799 36.5086C60.4234 36.4926 60.366 36.4752 60.3077 36.4563C60.2493 36.4375 60.1919 36.4149 60.1354 36.3886C60.079 36.3622 60.0286 36.3279 59.9844 36.2855C59.9401 36.2432 59.9044 36.1905 59.8771 36.1274C59.8507 36.0634 59.8376 35.9848 59.8376 35.8916C59.8376 35.8173 59.8521 35.7448 59.8813 35.6742C59.9114 35.6036 59.9547 35.541 60.0112 35.4865C60.0677 35.4319 60.1373 35.3881 60.2201 35.3552C60.303 35.3222 60.398 35.3057 60.5053 35.3057C60.6258 35.3057 60.7368 35.3246 60.8385 35.3622C60.9401 35.3999 61.0267 35.4526 61.0983 35.5203L61.0037 35.6996ZM61.3836 37.3697V35.9213H61.5968C61.642 35.9213 61.6716 35.9425 61.6857 35.9848L61.7083 36.0921C61.7337 36.0639 61.7601 36.038 61.7874 36.0145C61.8156 35.9909 61.8453 35.9707 61.8763 35.9537C61.9083 35.9368 61.9422 35.9236 61.978 35.9142C62.0147 35.9039 62.0547 35.8987 62.098 35.8987C62.1893 35.8987 62.2641 35.9236 62.3224 35.9735C62.3817 36.0225 62.426 36.0879 62.4551 36.1697C62.4777 36.1217 62.506 36.0808 62.5398 36.0469C62.5737 36.0121 62.6109 35.9839 62.6514 35.9622C62.6918 35.9406 62.7347 35.9246 62.7798 35.9142C62.826 35.9039 62.8721 35.8987 62.9182 35.8987C62.9982 35.8987 63.0693 35.9109 63.1314 35.9354C63.1935 35.9599 63.2457 35.9956 63.2881 36.0427C63.3304 36.0897 63.3624 36.1472 63.3841 36.2149C63.4067 36.2827 63.418 36.3603 63.418 36.4479V37.3697H63.0693V36.4479C63.0693 36.3556 63.049 36.2865 63.0085 36.2403C62.9681 36.1933 62.9088 36.1697 62.8307 36.1697C62.7949 36.1697 62.7615 36.1759 62.7304 36.1881C62.7003 36.2003 62.6735 36.2182 62.65 36.2417C62.6274 36.2643 62.6095 36.293 62.5963 36.3279C62.5831 36.3627 62.5765 36.4027 62.5765 36.4479V37.3697H62.2264V36.4479C62.2264 36.3509 62.2067 36.2803 62.1671 36.2361C62.1285 36.1919 62.0716 36.1697 61.9963 36.1697C61.9455 36.1697 61.898 36.1825 61.8537 36.2079C61.8104 36.2323 61.77 36.2662 61.7323 36.3095V37.3697H61.3836ZM64.5146 36.7514C64.4139 36.7561 64.3292 36.765 64.2605 36.7782C64.1918 36.7905 64.1367 36.8065 64.0953 36.8262C64.0539 36.846 64.0242 36.869 64.0064 36.8954C63.9885 36.9217 63.9795 36.9505 63.9795 36.9815C63.9795 37.0427 63.9974 37.0865 64.0332 37.1128C64.0699 37.1392 64.1174 37.1523 64.1758 37.1523C64.2473 37.1523 64.3089 37.1396 64.3607 37.1142C64.4134 37.0879 64.4647 37.0483 64.5146 36.9956V36.7514ZM63.7155 36.1232C63.8821 35.9707 64.0826 35.8945 64.3169 35.8945C64.4017 35.8945 64.4774 35.9086 64.5442 35.9368C64.6111 35.9641 64.6675 36.0027 64.7137 36.0526C64.7598 36.1015 64.7946 36.1603 64.8181 36.229C64.8426 36.2977 64.8548 36.373 64.8548 36.4549V37.3697H64.6967C64.6638 37.3697 64.6384 37.365 64.6205 37.3556C64.6026 37.3453 64.5885 37.325 64.5781 37.2949L64.5471 37.1905C64.5104 37.2234 64.4746 37.2526 64.4398 37.278C64.4049 37.3025 64.3687 37.3232 64.3311 37.3401C64.2934 37.357 64.2529 37.3697 64.2097 37.3782C64.1673 37.3876 64.1202 37.3923 64.0685 37.3923C64.0073 37.3923 63.9508 37.3843 63.8991 37.3683C63.8473 37.3514 63.8026 37.3265 63.7649 37.2935C63.7273 37.2606 63.6981 37.2196 63.6774 37.1707C63.6567 37.1217 63.6464 37.0648 63.6464 36.9999C63.6464 36.9632 63.6525 36.9269 63.6647 36.8912C63.6769 36.8545 63.6967 36.8196 63.724 36.7867C63.7522 36.7537 63.7885 36.7227 63.8327 36.6935C63.8769 36.6643 63.9311 36.6389 63.9951 36.6173C64.06 36.5956 64.1353 36.5782 64.2209 36.565C64.3066 36.5509 64.4045 36.5425 64.5146 36.5396V36.4549C64.5146 36.358 64.4939 36.2865 64.4525 36.2403C64.4111 36.1933 64.3513 36.1697 64.2732 36.1697C64.2167 36.1697 64.1697 36.1763 64.132 36.1895C64.0953 36.2027 64.0628 36.2177 64.0346 36.2347C64.0064 36.2507 63.9805 36.2653 63.9569 36.2785C63.9344 36.2916 63.9089 36.2982 63.8807 36.2982C63.8562 36.2982 63.8355 36.2921 63.8186 36.2799C63.8017 36.2667 63.788 36.2516 63.7777 36.2347L63.7155 36.1232ZM65.5122 36.1726C65.5574 36.086 65.611 36.0182 65.6731 35.9693C65.7352 35.9194 65.8087 35.8945 65.8934 35.8945C65.9602 35.8945 66.0138 35.909 66.0543 35.9382L66.0317 36.1994C66.027 36.2163 66.0199 36.2286 66.0105 36.2361C66.0021 36.2427 65.9903 36.246 65.9752 36.246C65.9611 36.246 65.9399 36.2436 65.9117 36.2389C65.8844 36.2342 65.8576 36.2319 65.8312 36.2319C65.7927 36.2319 65.7583 36.2375 65.7282 36.2488C65.6981 36.2601 65.6708 36.2766 65.6463 36.2982C65.6228 36.3189 65.6016 36.3443 65.5828 36.3745C65.5649 36.4046 65.5479 36.4389 65.5319 36.4775V37.3697H65.1832V35.9213H65.3879C65.4237 35.9213 65.4487 35.9279 65.4628 35.941C65.4769 35.9533 65.4863 35.9759 65.491 36.0088L65.5122 36.1726ZM66.7194 37.3923C66.5933 37.3923 66.4963 37.357 66.4286 37.2865C66.3617 37.2149 66.3283 37.1166 66.3283 36.9914V36.1825H66.1801C66.1613 36.1825 66.1453 36.1763 66.1321 36.1641C66.1189 36.1519 66.1123 36.1335 66.1123 36.109V35.9707L66.3453 35.9326L66.4187 35.5373C66.4234 35.5185 66.4323 35.5039 66.4455 35.4935C66.4587 35.4832 66.4756 35.478 66.4963 35.478H66.677V35.934H67.0638V36.1825H66.677V36.9674C66.677 37.0126 66.6878 37.0479 66.7095 37.0733C66.7321 37.0987 66.7627 37.1114 66.8013 37.1114C66.8229 37.1114 66.8408 37.109 66.8549 37.1043C66.87 37.0987 66.8827 37.093 66.893 37.0874C66.9043 37.0817 66.9142 37.0766 66.9227 37.0719C66.9311 37.0662 66.9396 37.0634 66.9481 37.0634C66.9584 37.0634 66.9669 37.0662 66.9735 37.0719C66.9801 37.0766 66.9871 37.0841 66.9947 37.0945L67.0991 37.2639C67.0483 37.3062 66.99 37.3382 66.9241 37.3599C66.8582 37.3815 66.79 37.3923 66.7194 37.3923ZM68.7389 36.7514C68.6382 36.7561 68.5534 36.765 68.4847 36.7782C68.416 36.7905 68.361 36.8065 68.3196 36.8262C68.2782 36.846 68.2485 36.869 68.2306 36.8954C68.2127 36.9217 68.2038 36.9505 68.2038 36.9815C68.2038 37.0427 68.2217 37.0865 68.2574 37.1128C68.2942 37.1392 68.3417 37.1523 68.4 37.1523C68.4716 37.1523 68.5332 37.1396 68.585 37.1142C68.6377 37.0879 68.689 37.0483 68.7389 36.9956V36.7514ZM67.9398 36.1232C68.1064 35.9707 68.3069 35.8945 68.5412 35.8945C68.6259 35.8945 68.7017 35.9086 68.7685 35.9368C68.8353 35.9641 68.8918 36.0027 68.9379 36.0526C68.984 36.1015 69.0189 36.1603 69.0424 36.229C69.0669 36.2977 69.0791 36.373 69.0791 36.4549V37.3697H68.921C68.888 37.3697 68.8626 37.365 68.8447 37.3556C68.8269 37.3453 68.8127 37.325 68.8024 37.2949L68.7713 37.1905C68.7346 37.2234 68.6989 37.2526 68.664 37.278C68.6292 37.3025 68.593 37.3232 68.5553 37.3401C68.5177 37.357 68.4772 37.3697 68.4339 37.3782C68.3916 37.3876 68.3445 37.3923 68.2927 37.3923C68.2316 37.3923 68.1751 37.3843 68.1233 37.3683C68.0716 37.3514 68.0269 37.3265 67.9892 37.2935C67.9516 37.2606 67.9224 37.2196 67.9017 37.1707C67.881 37.1217 67.8706 37.0648 67.8706 36.9999C67.8706 36.9632 67.8767 36.9269 67.889 36.8912C67.9012 36.8545 67.921 36.8196 67.9483 36.7867C67.9765 36.7537 68.0127 36.7227 68.057 36.6935C68.1012 36.6643 68.1553 36.6389 68.2193 36.6173C68.2843 36.5956 68.3596 36.5782 68.4452 36.565C68.5309 36.5509 68.6287 36.5425 68.7389 36.5396V36.4549C68.7389 36.358 68.7182 36.2865 68.6767 36.2403C68.6353 36.1933 68.5756 36.1697 68.4974 36.1697C68.441 36.1697 68.3939 36.1763 68.3563 36.1895C68.3196 36.2027 68.2871 36.2177 68.2589 36.2347C68.2306 36.2507 68.2047 36.2653 68.1812 36.2785C68.1586 36.2916 68.1332 36.2982 68.105 36.2982C68.0805 36.2982 68.0598 36.2921 68.0429 36.2799C68.0259 36.2667 68.0123 36.2516 68.0019 36.2347L67.9398 36.1232ZM69.7336 36.0992C69.7628 36.07 69.7934 36.0432 69.8254 36.0187C69.8583 35.9933 69.8927 35.9721 69.9284 35.9552C69.9652 35.9373 70.0042 35.9236 70.0456 35.9142C70.087 35.9039 70.1322 35.8987 70.1812 35.8987C70.2602 35.8987 70.3303 35.9123 70.3915 35.9396C70.4527 35.966 70.5035 36.0036 70.544 36.0526C70.5854 36.1006 70.6164 36.1585 70.6372 36.2262C70.6588 36.293 70.6696 36.3669 70.6696 36.4479V37.3697H70.3209V36.4479C70.3209 36.3594 70.3007 36.2912 70.2602 36.2432C70.2197 36.1942 70.1581 36.1697 70.0753 36.1697C70.015 36.1697 69.9586 36.1834 69.9059 36.2107C69.8532 36.238 69.8033 36.2752 69.7562 36.3222V37.3697H69.4075V35.9213H69.6207C69.6659 35.9213 69.6955 35.9425 69.7096 35.9848L69.7336 36.0992ZM71.9104 36.2912C71.8709 36.2432 71.8276 36.2093 71.7806 36.1895C71.7344 36.1697 71.6846 36.1599 71.6309 36.1599C71.5782 36.1599 71.5307 36.1697 71.4883 36.1895C71.446 36.2093 71.4097 36.2394 71.3796 36.2799C71.3495 36.3194 71.3264 36.3702 71.3104 36.4323C71.2944 36.4935 71.2864 36.566 71.2864 36.6497C71.2864 36.7345 71.293 36.8065 71.3062 36.8657C71.3203 36.9241 71.3401 36.9721 71.3655 37.0097C71.3909 37.0465 71.422 37.0733 71.4587 37.0902C71.4954 37.1062 71.5363 37.1142 71.5815 37.1142C71.654 37.1142 71.7156 37.0992 71.7664 37.069C71.8173 37.0389 71.8653 36.9961 71.9104 36.9406V36.2912ZM72.2591 35.2719V37.3697H72.046C71.9998 37.3697 71.9707 37.3486 71.9584 37.3062L71.9288 37.1665C71.8704 37.2333 71.8031 37.2874 71.7269 37.3288C71.6516 37.3702 71.5636 37.3909 71.4629 37.3909C71.3838 37.3909 71.3114 37.3745 71.2455 37.3415C71.1796 37.3086 71.1227 37.261 71.0747 37.1989C71.0276 37.1359 70.9909 37.0582 70.9646 36.966C70.9391 36.8737 70.9264 36.7683 70.9264 36.6497C70.9264 36.5425 70.941 36.4427 70.9702 36.3505C70.9994 36.2582 71.0413 36.1782 71.0958 36.1105C71.1504 36.0427 71.2158 35.99 71.2921 35.9523C71.3683 35.9137 71.454 35.8945 71.549 35.8945C71.63 35.8945 71.6991 35.9072 71.7566 35.9326C71.814 35.958 71.8653 35.9923 71.9104 36.0356V35.2719H72.2591ZM74.432 35.6996C74.4207 35.7194 74.4084 35.734 74.3953 35.7434C74.383 35.7519 74.3675 35.7561 74.3487 35.7561C74.3289 35.7561 74.3073 35.749 74.2837 35.7349C74.2612 35.7199 74.2339 35.7034 74.2019 35.6855C74.1699 35.6676 74.1322 35.6516 74.0889 35.6375C74.0466 35.6225 73.9962 35.6149 73.9379 35.6149C73.8852 35.6149 73.839 35.6215 73.7995 35.6347C73.76 35.6469 73.7266 35.6643 73.6993 35.6869C73.6729 35.7095 73.6532 35.7368 73.64 35.7688C73.6268 35.7999 73.6202 35.8342 73.6202 35.8719C73.6202 35.9199 73.6334 35.9599 73.6597 35.9919C73.687 36.0239 73.7228 36.0512 73.767 36.0737C73.8113 36.0963 73.8616 36.1166 73.9181 36.1345C73.9746 36.1523 74.0324 36.1716 74.0917 36.1923C74.151 36.2121 74.2089 36.2356 74.2654 36.2629C74.3219 36.2893 74.3722 36.3232 74.4164 36.3646C74.4607 36.405 74.496 36.4549 74.5223 36.5142C74.5496 36.5735 74.5633 36.6455 74.5633 36.7302C74.5633 36.8225 74.5473 36.909 74.5153 36.99C74.4842 37.07 74.4381 37.1401 74.3769 37.2003C74.3167 37.2596 74.2428 37.3067 74.1553 37.3415C74.0677 37.3754 73.9675 37.3923 73.8546 37.3923C73.7896 37.3923 73.7256 37.3857 73.6626 37.3726C73.5995 37.3603 73.5388 37.3425 73.4804 37.3189C73.423 37.2954 73.3689 37.2672 73.3181 37.2342C73.2673 37.2013 73.2221 37.1646 73.1826 37.1241L73.2941 36.942C73.3035 36.9288 73.3157 36.918 73.3308 36.9095C73.3459 36.9001 73.3619 36.8954 73.3788 36.8954C73.4023 36.8954 73.4277 36.9053 73.455 36.925C73.4823 36.9439 73.5148 36.965 73.5524 36.9886C73.5901 37.0121 73.6339 37.0337 73.6837 37.0535C73.7346 37.0723 73.7953 37.0817 73.8659 37.0817C73.9741 37.0817 74.0579 37.0563 74.1172 37.0055C74.1764 36.9537 74.2061 36.8799 74.2061 36.7839C74.2061 36.7302 74.1924 36.6865 74.1652 36.6526C74.1388 36.6187 74.1035 36.5905 74.0593 36.5679C74.015 36.5443 73.9647 36.5246 73.9082 36.5086C73.8517 36.4926 73.7943 36.4752 73.736 36.4563C73.6776 36.4375 73.6202 36.4149 73.5637 36.3886C73.5073 36.3622 73.4569 36.3279 73.4127 36.2855C73.3684 36.2432 73.3327 36.1905 73.3054 36.1274C73.279 36.0634 73.2659 35.9848 73.2659 35.8916C73.2659 35.8173 73.2804 35.7448 73.3096 35.6742C73.3397 35.6036 73.383 35.541 73.4395 35.4865C73.496 35.4319 73.5656 35.3881 73.6484 35.3552C73.7313 35.3222 73.8263 35.3057 73.9336 35.3057C74.0541 35.3057 74.1652 35.3246 74.2668 35.3622C74.3684 35.3999 74.455 35.4526 74.5266 35.5203L74.432 35.6996ZM75.1954 35.9213V37.3697H74.8453V35.9213H75.1954ZM75.2434 35.4992C75.2434 35.5293 75.2373 35.5575 75.225 35.5839C75.2128 35.6102 75.1963 35.6333 75.1756 35.653C75.1559 35.6728 75.1323 35.6888 75.105 35.701C75.0777 35.7123 75.0486 35.718 75.0175 35.718C74.9874 35.718 74.9587 35.7123 74.9314 35.701C74.905 35.6888 74.882 35.6728 74.8622 35.653C74.8424 35.6333 74.8264 35.6102 74.8142 35.5839C74.8029 35.5575 74.7973 35.5293 74.7973 35.4992C74.7973 35.4681 74.8029 35.4389 74.8142 35.4116C74.8264 35.3843 74.8424 35.3608 74.8622 35.341C74.882 35.3213 74.905 35.3057 74.9314 35.2945C74.9587 35.2822 74.9874 35.2761 75.0175 35.2761C75.0486 35.2761 75.0777 35.2822 75.105 35.2945C75.1323 35.3057 75.1559 35.3213 75.1756 35.341C75.1963 35.3608 75.2128 35.3843 75.225 35.4116C75.2373 35.4389 75.2434 35.4681 75.2434 35.4992ZM75.5509 37.3697V35.9213H75.7641C75.8092 35.9213 75.8389 35.9425 75.853 35.9848L75.8756 36.0921C75.901 36.0639 75.9274 36.038 75.9547 36.0145C75.9829 35.9909 76.0125 35.9707 76.0436 35.9537C76.0756 35.9368 76.1095 35.9236 76.1452 35.9142C76.1819 35.9039 76.2219 35.8987 76.2652 35.8987C76.3565 35.8987 76.4314 35.9236 76.4897 35.9735C76.549 36.0225 76.5932 36.0879 76.6224 36.1697C76.645 36.1217 76.6732 36.0808 76.7071 36.0469C76.741 36.0121 76.7782 35.9839 76.8187 35.9622C76.8591 35.9406 76.9019 35.9246 76.9471 35.9142C76.9932 35.9039 77.0394 35.8987 77.0855 35.8987C77.1655 35.8987 77.2365 35.9109 77.2987 35.9354C77.3608 35.9599 77.413 35.9956 77.4554 36.0427C77.4977 36.0897 77.5297 36.1472 77.5514 36.2149C77.5739 36.2827 77.5852 36.3603 77.5852 36.4479V37.3697H77.2365V36.4479C77.2365 36.3556 77.2163 36.2865 77.1758 36.2403C77.1354 36.1933 77.0761 36.1697 76.9979 36.1697C76.9622 36.1697 76.9288 36.1759 76.8977 36.1881C76.8676 36.2003 76.8408 36.2182 76.8172 36.2417C76.7947 36.2643 76.7768 36.293 76.7636 36.3279C76.7504 36.3627 76.7438 36.4027 76.7438 36.4479V37.3697H76.3937V36.4479C76.3937 36.3509 76.3739 36.2803 76.3344 36.2361C76.2958 36.1919 76.2389 36.1697 76.1636 36.1697C76.1128 36.1697 76.0652 36.1825 76.021 36.2079C75.9777 36.2323 75.9372 36.2662 75.8996 36.3095V37.3697H75.5509ZM78.2654 36.9942C78.3049 37.0422 78.3478 37.0761 78.3939 37.0959C78.4409 37.1156 78.4918 37.1255 78.5463 37.1255C78.599 37.1255 78.6466 37.1156 78.6889 37.0959C78.7313 37.0761 78.767 37.046 78.7962 37.0055C78.8263 36.965 78.8494 36.9142 78.8654 36.853C78.8814 36.7909 78.8894 36.718 78.8894 36.6342C78.8894 36.5495 78.8823 36.478 78.8682 36.4196C78.855 36.3603 78.8358 36.3123 78.8103 36.2756C78.7849 36.2389 78.7539 36.2121 78.7172 36.1952C78.6814 36.1782 78.6405 36.1697 78.5943 36.1697C78.5219 36.1697 78.4602 36.1853 78.4094 36.2163C78.3586 36.2465 78.3106 36.2893 78.2654 36.3448V36.9942ZM78.247 36.1189C78.3063 36.0521 78.3736 35.998 78.4489 35.9566C78.5242 35.9152 78.6127 35.8945 78.7143 35.8945C78.7934 35.8945 78.8654 35.9109 78.9303 35.9439C78.9962 35.9768 79.0527 36.0248 79.0998 36.0879C79.1478 36.15 79.1845 36.2272 79.2099 36.3194C79.2362 36.4107 79.2494 36.5156 79.2494 36.6342C79.2494 36.7425 79.2348 36.8427 79.2056 36.9349C79.1765 37.0272 79.1346 37.1072 79.08 37.1749C79.0263 37.2427 78.9609 37.2959 78.8838 37.3345C78.8075 37.3721 78.7219 37.3909 78.6268 37.3909C78.5459 37.3909 78.4767 37.3787 78.4193 37.3542C78.3619 37.3288 78.3106 37.294 78.2654 37.2497V37.8427H77.9167V35.9213H78.1299C78.175 35.9213 78.2047 35.9425 78.2188 35.9848L78.247 36.1189ZM79.8744 35.2719V37.3697H79.5257V35.2719H79.8744ZM81.155 36.4789C81.155 36.4337 81.1484 36.3914 81.1353 36.3519C81.123 36.3114 81.1042 36.2761 81.0788 36.246C81.0534 36.2159 81.0209 36.1923 80.9814 36.1754C80.9428 36.1575 80.8976 36.1486 80.8458 36.1486C80.7451 36.1486 80.6656 36.1773 80.6073 36.2347C80.5498 36.2921 80.5131 36.3735 80.4971 36.4789H81.155ZM80.4901 36.6893C80.4957 36.7636 80.5089 36.8281 80.5296 36.8827C80.5503 36.9363 80.5776 36.981 80.6115 37.0168C80.6454 37.0516 80.6854 37.078 80.7315 37.0959C80.7786 37.1128 80.8303 37.1213 80.8868 37.1213C80.9433 37.1213 80.9917 37.1147 81.0322 37.1015C81.0736 37.0883 81.1094 37.0737 81.1395 37.0577C81.1706 37.0417 81.1974 37.0272 81.22 37.014C81.2435 37.0008 81.2661 36.9942 81.2877 36.9942C81.3169 36.9942 81.3386 37.005 81.3527 37.0267L81.4529 37.1537C81.4143 37.1989 81.371 37.237 81.323 37.2681C81.275 37.2982 81.2247 37.3227 81.172 37.3415C81.1202 37.3594 81.067 37.3721 81.0124 37.3796C80.9588 37.3872 80.9066 37.3909 80.8557 37.3909C80.755 37.3909 80.6614 37.3745 80.5748 37.3415C80.4882 37.3076 80.4129 37.2582 80.3489 37.1933C80.2849 37.1274 80.2346 37.0465 80.1978 36.9505C80.1611 36.8535 80.1428 36.7415 80.1428 36.6145C80.1428 36.5156 80.1588 36.4229 80.1908 36.3363C80.2228 36.2488 80.2684 36.173 80.3277 36.109C80.388 36.0441 80.4609 35.9928 80.5466 35.9552C80.6331 35.9175 80.7306 35.8987 80.8388 35.8987C80.9301 35.8987 81.0143 35.9133 81.0915 35.9425C81.1687 35.9716 81.235 36.0145 81.2906 36.0709C81.3461 36.1265 81.3894 36.1952 81.4204 36.277C81.4524 36.358 81.4684 36.4507 81.4684 36.5552C81.4684 36.6079 81.4628 36.6436 81.4515 36.6625C81.4402 36.6803 81.4186 36.6893 81.3866 36.6893H80.4901Z" fill="#2563EB"/>
</g>
<defs>
<clipPath id="clip0_445_25661">
<rect width="92" height="40" fill="white"/>
</clipPath>
</defs>
</svg>
