<svg width="20" height="20" viewBox="0 0 20 20" fill="none" xmlns="http://www.w3.org/2000/svg">
<path d="M2.5748 9.26756C2.5748 13.3426 5.53313 17.1592 9.57479 18.2759C9.84979 18.3509 10.1498 18.3509 10.4248 18.2759C14.4665 17.1592 17.4248 13.3426 17.4248 9.26756V5.60922C17.4248 4.92588 16.9081 4.15088 16.2665 3.89255L11.6248 1.99258C10.5831 1.56758 9.40814 1.56758 8.36648 1.99258L3.7248 3.89255C3.09147 4.15088 2.56646 4.92588 2.56646 5.60922L2.5748 9.26756Z" stroke="#40B773" stroke-width="1.5" stroke-linecap="round" stroke-linejoin="round"/>
<path d="M10.0003 10.4173C9.07985 10.4173 8.33366 9.67113 8.33366 8.75065C8.33366 7.83018 9.07985 7.08398 10.0003 7.08398C10.9208 7.08398 11.667 7.83018 11.667 8.75065C11.667 9.67113 10.9208 10.4173 10.0003 10.4173Z" stroke="#40B773" stroke-width="1.5" stroke-miterlimit="10" stroke-linecap="round" stroke-linejoin="round"/>
<path d="M10 10.418V12.918" stroke="#40B773" stroke-width="1.5" stroke-miterlimit="10" stroke-linecap="round" stroke-linejoin="round"/>
</svg>
