<svg width="40" height="40" viewBox="0 0 40 40" fill="none" xmlns="http://www.w3.org/2000/svg">
<rect x="0.5" y="0.5" width="39" height="39" rx="19.5" fill="white"/>
<rect x="0.5" y="0.5" width="39" height="39" rx="19.5" stroke="#E4E4E4"/>
<path d="M24.96 14.1699C26.96 15.5599 28.34 17.7699 28.62 20.3199" stroke="#090202" stroke-width="1.5" stroke-linecap="round" stroke-linejoin="round"/>
<path d="M11.4902 20.3702C11.7502 17.8302 13.1102 15.6202 15.0902 14.2202" stroke="#090202" stroke-width="1.5" stroke-linecap="round" stroke-linejoin="round"/>
<path d="M16.1904 28.9399C17.3504 29.5299 18.6704 29.8599 20.0604 29.8599C21.4004 29.8599 22.6604 29.5599 23.7904 29.0099" stroke="#090202" stroke-width="1.5" stroke-linecap="round" stroke-linejoin="round"/>
<path d="M20.0603 15.7001C21.5956 15.7001 22.8403 14.4555 22.8403 12.9201C22.8403 11.3848 21.5956 10.1401 20.0603 10.1401C18.5249 10.1401 17.2803 11.3848 17.2803 12.9201C17.2803 14.4555 18.5249 15.7001 20.0603 15.7001Z" stroke="#090202" stroke-width="1.5" stroke-linecap="round" stroke-linejoin="round"/>
<path d="M12.8298 27.9199C14.3652 27.9199 15.6098 26.6752 15.6098 25.1399C15.6098 23.6045 14.3652 22.3599 12.8298 22.3599C11.2945 22.3599 10.0498 23.6045 10.0498 25.1399C10.0498 26.6752 11.2945 27.9199 12.8298 27.9199Z" stroke="#090202" stroke-width="1.5" stroke-linecap="round" stroke-linejoin="round"/>
<path d="M27.1696 27.9199C28.705 27.9199 29.9496 26.6752 29.9496 25.1399C29.9496 23.6045 28.705 22.3599 27.1696 22.3599C25.6343 22.3599 24.3896 23.6045 24.3896 25.1399C24.3896 26.6752 25.6343 27.9199 27.1696 27.9199Z" stroke="#090202" stroke-width="1.5" stroke-linecap="round" stroke-linejoin="round"/>
</svg>
