<svg width="12" height="12" viewBox="0 0 12 12" fill="none" xmlns="http://www.w3.org/2000/svg">
<path d="M6.86544 1.75482L7.74544 3.51482C7.86544 3.75982 8.18544 3.99482 8.45544 4.03982L10.0504 4.30482C11.0704 4.47482 11.3104 5.21482 10.5754 5.94482L9.33544 7.18482C9.12544 7.39482 9.01044 7.79982 9.07544 8.08982L9.43044 9.62482C9.71044 10.8398 9.06544 11.3098 7.99044 10.6748L6.49544 9.78982C6.22544 9.62982 5.78044 9.62982 5.50544 9.78982L4.01044 10.6748C2.94044 11.3098 2.29044 10.8348 2.57044 9.62482L2.92544 8.08982C2.99044 7.79982 2.87544 7.39482 2.66544 7.18482L1.42544 5.94482C0.695443 5.21482 0.930443 4.47482 1.95044 4.30482L3.54544 4.03982C3.81044 3.99482 4.13044 3.75982 4.25044 3.51482L5.13044 1.75482C5.61044 0.799824 6.39044 0.799824 6.86544 1.75482Z" stroke="#8E98A8" stroke-width="1.5" stroke-linecap="round" stroke-linejoin="round"/>
</svg>
