<svg width="40" height="40" viewBox="0 0 40 40" fill="none" xmlns="http://www.w3.org/2000/svg">
<path d="M15.834 22.9167C15.834 24.5333 17.084 25.8333 18.6173 25.8333H21.7506C23.084 25.8333 24.1673 24.7 24.1673 23.2834C24.1673 21.7667 23.5007 21.2167 22.5173 20.8667L17.5007 19.1167C16.5173 18.7667 15.8507 18.2334 15.8507 16.7C15.8507 15.3 16.934 14.15 18.2673 14.15H21.4006C22.934 14.15 24.184 15.45 24.184 17.0667" stroke="#2563EB" stroke-width="1.5" stroke-linecap="round" stroke-linejoin="round"/>
<path d="M20 12.5V27.5" stroke="#2563EB" stroke-width="1.5" stroke-linecap="round" stroke-linejoin="round"/>
<path d="M36.6673 20C36.6673 29.2 29.2007 36.6666 20.0007 36.6666C10.8007 36.6666 3.33398 29.2 3.33398 20C3.33398 10.8 10.8007 3.33331 20.0007 3.33331" stroke="#2563EB" stroke-width="1.5" stroke-linecap="round" stroke-linejoin="round"/>
<path d="M36.6667 9.99998V3.33331H30" stroke="#2563EB" stroke-width="1.5" stroke-linecap="round" stroke-linejoin="round"/>
<path d="M28.334 11.6666L36.6673 3.33331" stroke="#2563EB" stroke-width="1.5" stroke-linecap="round" stroke-linejoin="round"/>
</svg>
